<?xml version="1.0" encoding="utf-8"?>
<!-- Generator: Adobe Illustrator 24.0.3, SVG Export Plug-In . SVG Version: 6.00 Build 0)  -->
<svg version="1.1" id="Layer_1" xmlns="http://www.w3.org/2000/svg" xmlns:xlink="http://www.w3.org/1999/xlink" x="0px" y="0px"
	 viewBox="0 0 38.4 30" style="enable-background:new 0 0 38.4 30;" xml:space="preserve">
<style type="text/css">
	.st0{fill:#FAFEFF;}
</style>
<g>
	<path class="st0" d="M11.8,8.2l-6,0.2H5.6l-5.4,3.9c0,0-0.2,0-0.2,0.2c0,0,0,0,0,0.2c0,0.2,0,0.2,0.2,0.4l5.6,3.3
		c-0.6,1-0.4,2.1-0.2,3.1l-2.3,1.7c-0.2,0-0.2,0.2,0,0.4l1.4,2.1c0,0,0,0.2,0.2,0.2H5l2.5-1.7c0.4,0.2,1.7,1,3.7,1.2l0.4,6.2
		c0,0.2,0,0.2,0.2,0.4c0,0,0.2,0.2,0.4,0l5.8-3.1c0,0,0.2,0,0.2-0.2l2.5-5.6c1.6-0.8,3.1-1.7,4.7-2.7c9.3-6.4,12-12.4,12.8-15.5
		c0.4-1.2,0.2-1.6,0.2-1.6c0-0.2,0-0.4-0.2-0.4c-0.4,0-8.5-3.7-22.7,4.5C15.7,5.5,14,6.5,11.8,8.2z M18,10.3
		c0.6-1.9,2.5-3.1,4.5-2.7c2.1,0.2,3.1,2.5,2.7,4.5c-0.2,2.1-2.5,3.1-4.5,2.7C18.6,14.2,17.4,12.3,18,10.3z"/>
</g>
</svg>
